<svg width="20" height="24" viewBox="0 0 20 24" fill="none" xmlns="http://www.w3.org/2000/svg">
<path fill-rule="evenodd" clip-rule="evenodd" d="M13.7007 3.8384C14.5654 2.8011 14.9993 1.68041 14.9993 0.480134V0.480119C14.9993 0.320924 14.9919 0.160454 14.9743 0C14.372 0.0315842 13.7315 0.216053 13.0544 0.549613C12.3758 0.888225 11.8162 1.3127 11.3762 1.8232C10.4949 2.83147 9.99868 4.06462 9.99868 5.21688C9.99868 5.37613 10.0088 5.52768 10.0262 5.67168C11.395 5.78412 12.6572 5.07155 13.7007 3.8384ZM18.3043 21.0232C18.7967 20.3136 19.2218 19.5418 19.5808 18.7033C19.7289 18.3478 19.8681 17.9774 20 17.5907C19.3918 17.333 18.8451 16.97 18.3556 16.5004C17.2754 15.4886 16.7258 14.2143 16.7097 12.6829C16.6921 10.7169 17.5758 9.18433 19.3624 8.09014C18.3644 6.65611 16.8636 5.86013 14.8659 5.69717C14.1287 5.63392 13.2288 5.7945 12.1625 6.18234C11.035 6.60055 10.3699 6.81033 10.1737 6.81033C9.91118 6.81033 9.31247 6.63092 8.38004 6.27716C7.44497 5.92457 6.69251 5.74517 6.11872 5.74517C5.07006 5.7628 4.09629 6.03835 3.19508 6.57907C2.29386 7.1198 1.57379 7.85637 1.03254 8.79012C0.343837 9.9526 0 11.3398 0 12.9482C0 14.3523 0.25502 15.8026 0.76374 17.3004C1.23875 18.687 1.84508 19.9033 2.58259 20.9521C3.26997 21.9343 3.84376 22.6276 4.30251 23.0321C5.02125 23.7076 5.74132 24.0291 6.46373 23.998C6.93874 23.9817 7.56002 23.8172 8.33123 23.5017C9.10128 23.1876 9.82119 23.0321 10.4925 23.0321C11.1325 23.0321 11.8325 23.1876 12.5942 23.5017C13.3534 23.8172 14.0056 23.9728 14.5464 23.9728C15.2997 23.955 16.0032 23.6424 16.6598 23.0321C17.0834 22.6602 17.633 21.9906 18.3043 21.0232Z" fill="#0E0410"/>
</svg>
