<svg width="50" height="46" viewBox="0 0 50 46" fill="none" xmlns="http://www.w3.org/2000/svg">
<path d="M1 4C1 2.34315 2.34315 1 4 1H36C37.6569 1 39 2.34315 39 4V42C39 43.6569 37.6569 45 36 45H4C2.34315 45 1 43.6569 1 42V4Z" fill="white" stroke="black" stroke-width="2"/>
<mask id="path-2-inside-1_537_11937" fill="white">
<path d="M5 6C5.55225 6 6 5.55228 6 5C6 4.44772 5.55225 4 5 4C4.44775 4 4 4.44772 4 5C4 5.55228 4.44775 6 5 6Z"/>
<path d="M5 14C5.55225 14 6 13.5523 6 13C6 12.4477 5.55225 12 5 12C4.44775 12 4 12.4477 4 13C4 13.5523 4.44775 14 5 14Z"/>
<path d="M8 9C8 9.55228 7.55225 10 7 10C6.44775 10 6 9.55228 6 9C6 8.44772 6.44775 8 7 8C7.55225 8 8 8.44772 8 9Z"/>
<path d="M13 6C13.5522 6 14 5.55228 14 5C14 4.44772 13.5522 4 13 4C12.4478 4 12 4.44772 12 5C12 5.55228 12.4478 6 13 6Z"/>
<path d="M14 13C14 13.5523 13.5522 14 13 14C12.4478 14 12 13.5523 12 13C12 12.4477 12.4478 12 13 12C13.5522 12 14 12.4477 14 13Z"/>
<path d="M15 10C15.5522 10 16 9.55228 16 9C16 8.44772 15.5522 8 15 8C14.4478 8 14 8.44772 14 9C14 9.55228 14.4478 10 15 10Z"/>
<path d="M22 5C22 5.55228 21.5522 6 21 6C20.4478 6 20 5.55228 20 5C20 4.44772 20.4478 4 21 4C21.5522 4 22 4.44772 22 5Z"/>
<path d="M21 14C21.5522 14 22 13.5523 22 13C22 12.4477 21.5522 12 21 12C20.4478 12 20 12.4477 20 13C20 13.5523 20.4478 14 21 14Z"/>
<path d="M24 9C24 9.55228 23.5522 10 23 10C22.4478 10 22 9.55228 22 9C22 8.44772 22.4478 8 23 8C23.5522 8 24 8.44772 24 9Z"/>
<path d="M9 6C9.55225 6 10 5.55228 10 5C10 4.44772 9.55225 4 9 4C8.44775 4 8 4.44772 8 5C8 5.55228 8.44775 6 9 6Z"/>
<path d="M10 13C10 13.5523 9.55225 14 9 14C8.44775 14 8 13.5523 8 13C8 12.4477 8.44775 12 9 12C9.55225 12 10 12.4477 10 13Z"/>
<path d="M11 10C11.5522 10 12 9.55228 12 9C12 8.44772 11.5522 8 11 8C10.4478 8 10 8.44772 10 9C10 9.55228 10.4478 10 11 10Z"/>
<path d="M18 5C18 5.55228 17.5522 6 17 6C16.4478 6 16 5.55228 16 5C16 4.44772 16.4478 4 17 4C17.5522 4 18 4.44772 18 5Z"/>
<path d="M17 14C17.5522 14 18 13.5523 18 13C18 12.4477 17.5522 12 17 12C16.4478 12 16 12.4477 16 13C16 13.5523 16.4478 14 17 14Z"/>
<path d="M20 9C20 9.55228 19.5522 10 19 10C18.4478 10 18 9.55228 18 9C18 8.44772 18.4478 8 19 8C19.5522 8 20 8.44772 20 9Z"/>
<path d="M25 6C25.5522 6 26 5.55228 26 5C26 4.44772 25.5522 4 25 4C24.4478 4 24 4.44772 24 5C24 5.55228 24.4478 6 25 6Z"/>
<path d="M26 13C26 13.5523 25.5522 14 25 14C24.4478 14 24 13.5523 24 13C24 12.4477 24.4478 12 25 12C25.5522 12 26 12.4477 26 13Z"/>
<path d="M27 10C27.5522 10 28 9.55228 28 9C28 8.44772 27.5522 8 27 8C26.4478 8 26 8.44772 26 9C26 9.55228 26.4478 10 27 10Z"/>
<path d="M30 5C30 5.55228 29.5522 6 29 6C28.4478 6 28 5.55228 28 5C28 4.44772 28.4478 4 29 4C29.5522 4 30 4.44772 30 5Z"/>
<path d="M29 14C29.5522 14 30 13.5523 30 13C30 12.4477 29.5522 12 29 12C28.4478 12 28 12.4477 28 13C28 13.5523 28.4478 14 29 14Z"/>
<path d="M31 10C31.5522 10 32 9.55228 32 9C32 8.44772 31.5522 8 31 8C30.4478 8 30 8.44772 30 9C30 9.55228 30.4478 10 31 10Z"/>
<path d="M34 5C34 5.55228 33.5522 6 33 6C32.4478 6 32 5.55228 32 5C32 4.44772 32.4478 4 33 4C33.5522 4 34 4.44772 34 5Z"/>
<path d="M33 14C33.5522 14 34 13.5523 34 13C34 12.4477 33.5522 12 33 12C32.4478 12 32 12.4477 32 13C32 13.5523 32.4478 14 33 14Z"/>
<path d="M35 10C35.5522 10 36 9.55228 36 9C36 8.44772 35.5522 8 35 8C34.4478 8 34 8.44772 34 9C34 9.55228 34.4478 10 35 10Z"/>
<path d="M5 22C5.55225 22 6 21.5523 6 21C6 20.4477 5.55225 20 5 20C4.44775 20 4 20.4477 4 21C4 21.5523 4.44775 22 5 22Z"/>
<path d="M8 17C8 17.5523 7.55225 18 7 18C6.44775 18 6 17.5523 6 17C6 16.4477 6.44775 16 7 16C7.55225 16 8 16.4477 8 17Z"/>
<path d="M14 21C14 21.5523 13.5522 22 13 22C12.4478 22 12 21.5523 12 21C12 20.4477 12.4478 20 13 20C13.5522 20 14 20.4477 14 21Z"/>
<path d="M15 18C15.5522 18 16 17.5523 16 17C16 16.4477 15.5522 16 15 16C14.4478 16 14 16.4477 14 17C14 17.5523 14.4478 18 15 18Z"/>
<path d="M21 22C21.5522 22 22 21.5523 22 21C22 20.4477 21.5522 20 21 20C20.4478 20 20 20.4477 20 21C20 21.5523 20.4478 22 21 22Z"/>
<path d="M24 17C24 17.5523 23.5522 18 23 18C22.4478 18 22 17.5523 22 17C22 16.4477 22.4478 16 23 16C23.5522 16 24 16.4477 24 17Z"/>
<path d="M10 21C10 21.5523 9.55225 22 9 22C8.44775 22 8 21.5523 8 21C8 20.4477 8.44775 20 9 20C9.55225 20 10 20.4477 10 21Z"/>
<path d="M11 18C11.5522 18 12 17.5523 12 17C12 16.4477 11.5522 16 11 16C10.4478 16 10 16.4477 10 17C10 17.5523 10.4478 18 11 18Z"/>
<path d="M17 22C17.5522 22 18 21.5523 18 21C18 20.4477 17.5522 20 17 20C16.4478 20 16 20.4477 16 21C16 21.5523 16.4478 22 17 22Z"/>
<path d="M20 17C20 17.5523 19.5522 18 19 18C18.4478 18 18 17.5523 18 17C18 16.4477 18.4478 16 19 16C19.5522 16 20 16.4477 20 17Z"/>
<path d="M26 21C26 21.5523 25.5522 22 25 22C24.4478 22 24 21.5523 24 21C24 20.4477 24.4478 20 25 20C25.5522 20 26 20.4477 26 21Z"/>
<path d="M27 18C27.5522 18 28 17.5523 28 17C28 16.4477 27.5522 16 27 16C26.4478 16 26 16.4477 26 17C26 17.5523 26.4478 18 27 18Z"/>
<path d="M29 22C29.5522 22 30 21.5523 30 21C30 20.4477 29.5522 20 29 20C28.4478 20 28 20.4477 28 21C28 21.5523 28.4478 22 29 22Z"/>
<path d="M31 18C31.5522 18 32 17.5523 32 17C32 16.4477 31.5522 16 31 16C30.4478 16 30 16.4477 30 17C30 17.5523 30.4478 18 31 18Z"/>
<path d="M33 22C33.5522 22 34 21.5523 34 21C34 20.4477 33.5522 20 33 20C32.4478 20 32 20.4477 32 21C32 21.5523 32.4478 22 33 22Z"/>
<path d="M35 18C35.5522 18 36 17.5523 36 17C36 16.4477 35.5522 16 35 16C34.4478 16 34 16.4477 34 17C34 17.5523 34.4478 18 35 18Z"/>
<path d="M5 30C5.55225 30 6 29.5523 6 29C6 28.4477 5.55225 28 5 28C4.44775 28 4 28.4477 4 29C4 29.5523 4.44775 30 5 30Z"/>
<path d="M8 25C8 25.5523 7.55225 26 7 26C6.44775 26 6 25.5523 6 25C6 24.4477 6.44775 24 7 24C7.55225 24 8 24.4477 8 25Z"/>
<path d="M14 29C14 29.5523 13.5522 30 13 30C12.4478 30 12 29.5523 12 29C12 28.4477 12.4478 28 13 28C13.5522 28 14 28.4477 14 29Z"/>
<path d="M15 26C15.5522 26 16 25.5523 16 25C16 24.4477 15.5522 24 15 24C14.4478 24 14 24.4477 14 25C14 25.5523 14.4478 26 15 26Z"/>
<path d="M21 30C21.5522 30 22 29.5523 22 29C22 28.4477 21.5522 28 21 28C20.4478 28 20 28.4477 20 29C20 29.5523 20.4478 30 21 30Z"/>
<path d="M24 25C24 25.5523 23.5522 26 23 26C22.4478 26 22 25.5523 22 25C22 24.4477 22.4478 24 23 24C23.5522 24 24 24.4477 24 25Z"/>
<path d="M10 29C10 29.5523 9.55225 30 9 30C8.44775 30 8 29.5523 8 29C8 28.4477 8.44775 28 9 28C9.55225 28 10 28.4477 10 29Z"/>
<path d="M11 26C11.5522 26 12 25.5523 12 25C12 24.4477 11.5522 24 11 24C10.4478 24 10 24.4477 10 25C10 25.5523 10.4478 26 11 26Z"/>
<path d="M17 30C17.5522 30 18 29.5523 18 29C18 28.4477 17.5522 28 17 28C16.4478 28 16 28.4477 16 29C16 29.5523 16.4478 30 17 30Z"/>
<path d="M20 25C20 25.5523 19.5522 26 19 26C18.4478 26 18 25.5523 18 25C18 24.4477 18.4478 24 19 24C19.5522 24 20 24.4477 20 25Z"/>
<path d="M26 29C26 29.5523 25.5522 30 25 30C24.4478 30 24 29.5523 24 29C24 28.4477 24.4478 28 25 28C25.5522 28 26 28.4477 26 29Z"/>
<path d="M27 26C27.5522 26 28 25.5523 28 25C28 24.4477 27.5522 24 27 24C26.4478 24 26 24.4477 26 25C26 25.5523 26.4478 26 27 26Z"/>
<path d="M29 30C29.5522 30 30 29.5523 30 29C30 28.4477 29.5522 28 29 28C28.4478 28 28 28.4477 28 29C28 29.5523 28.4478 30 29 30Z"/>
<path d="M31 26C31.5522 26 32 25.5523 32 25C32 24.4477 31.5522 24 31 24C30.4478 24 30 24.4477 30 25C30 25.5523 30.4478 26 31 26Z"/>
<path d="M33 30C33.5522 30 34 29.5523 34 29C34 28.4477 33.5522 28 33 28C32.4478 28 32 28.4477 32 29C32 29.5523 32.4478 30 33 30Z"/>
<path d="M35 26C35.5522 26 36 25.5523 36 25C36 24.4477 35.5522 24 35 24C34.4478 24 34 24.4477 34 25C34 25.5523 34.4478 26 35 26Z"/>
<path d="M8 33C8 33.5523 7.55225 34 7 34C6.44775 34 6 33.5523 6 33C6 32.4477 6.44775 32 7 32C7.55225 32 8 32.4477 8 33Z"/>
<path d="M15 34C15.5522 34 16 33.5523 16 33C16 32.4477 15.5522 32 15 32C14.4478 32 14 32.4477 14 33C14 33.5523 14.4478 34 15 34Z"/>
<path d="M24 33C24 33.5523 23.5522 34 23 34C22.4478 34 22 33.5523 22 33C22 32.4477 22.4478 32 23 32C23.5522 32 24 32.4477 24 33Z"/>
<path d="M11 34C11.5522 34 12 33.5523 12 33C12 32.4477 11.5522 32 11 32C10.4478 32 10 32.4477 10 33C10 33.5523 10.4478 34 11 34Z"/>
<path d="M20 33C20 33.5523 19.5522 34 19 34C18.4478 34 18 33.5523 18 33C18 32.4477 18.4478 32 19 32C19.5522 32 20 32.4477 20 33Z"/>
<path d="M27 34C27.5522 34 28 33.5523 28 33C28 32.4477 27.5522 32 27 32C26.4478 32 26 32.4477 26 33C26 33.5523 26.4478 34 27 34Z"/>
<path d="M31 34C31.5522 34 32 33.5523 32 33C32 32.4477 31.5522 32 31 32C30.4478 32 30 32.4477 30 33C30 33.5523 30.4478 34 31 34Z"/>
<path d="M35 34C35.5522 34 36 33.5523 36 33C36 32.4477 35.5522 32 35 32C34.4478 32 34 32.4477 34 33C34 33.5523 34.4478 34 35 34Z"/>
<path d="M5 38C5.55225 38 6 37.5523 6 37C6 36.4477 5.55225 36 5 36C4.44775 36 4 36.4477 4 37C4 37.5523 4.44775 38 5 38Z"/>
<path d="M14 37C14 37.5523 13.5522 38 13 38C12.4478 38 12 37.5523 12 37C12 36.4477 12.4478 36 13 36C13.5522 36 14 36.4477 14 37Z"/>
<path d="M21 38C21.5522 38 22 37.5523 22 37C22 36.4477 21.5522 36 21 36C20.4478 36 20 36.4477 20 37C20 37.5523 20.4478 38 21 38Z"/>
<path d="M10 37C10 37.5523 9.55225 38 9 38C8.44775 38 8 37.5523 8 37C8 36.4477 8.44775 36 9 36C9.55225 36 10 36.4477 10 37Z"/>
<path d="M17 38C17.5522 38 18 37.5523 18 37C18 36.4477 17.5522 36 17 36C16.4478 36 16 36.4477 16 37C16 37.5523 16.4478 38 17 38Z"/>
<path d="M26 37C26 37.5523 25.5522 38 25 38C24.4478 38 24 37.5523 24 37C24 36.4477 24.4478 36 25 36C25.5522 36 26 36.4477 26 37Z"/>
<path d="M29 38C29.5522 38 30 37.5523 30 37C30 36.4477 29.5522 36 29 36C28.4478 36 28 36.4477 28 37C28 37.5523 28.4478 38 29 38Z"/>
<path d="M33 38C33.5522 38 34 37.5523 34 37C34 36.4477 33.5522 36 33 36C32.4478 36 32 36.4477 32 37C32 37.5523 32.4478 38 33 38Z"/>
<path d="M8 41C8 41.5523 7.55225 42 7 42C6.44775 42 6 41.5523 6 41C6 40.4477 6.44775 40 7 40C7.55225 40 8 40.4477 8 41Z"/>
<path d="M15 42C15.5522 42 16 41.5523 16 41C16 40.4477 15.5522 40 15 40C14.4478 40 14 40.4477 14 41C14 41.5523 14.4478 42 15 42Z"/>
<path d="M24 41C24 41.5523 23.5522 42 23 42C22.4478 42 22 41.5523 22 41C22 40.4477 22.4478 40 23 40C23.5522 40 24 40.4477 24 41Z"/>
<path d="M11 42C11.5522 42 12 41.5523 12 41C12 40.4477 11.5522 40 11 40C10.4478 40 10 40.4477 10 41C10 41.5523 10.4478 42 11 42Z"/>
<path d="M20 41C20 41.5523 19.5522 42 19 42C18.4478 42 18 41.5523 18 41C18 40.4477 18.4478 40 19 40C19.5522 40 20 40.4477 20 41Z"/>
<path d="M27 42C27.5522 42 28 41.5523 28 41C28 40.4477 27.5522 40 27 40C26.4478 40 26 40.4477 26 41C26 41.5523 26.4478 42 27 42Z"/>
<path d="M31 42C31.5522 42 32 41.5523 32 41C32 40.4477 31.5522 40 31 40C30.4478 40 30 40.4477 30 41C30 41.5523 30.4478 42 31 42Z"/>
<path d="M35 42C35.5522 42 36 41.5523 36 41C36 40.4477 35.5522 40 35 40C34.4478 40 34 40.4477 34 41C34 41.5523 34.4478 42 35 42Z"/>
</mask>
<path d="M5 6C5.55225 6 6 5.55228 6 5C6 4.44772 5.55225 4 5 4C4.44775 4 4 4.44772 4 5C4 5.55228 4.44775 6 5 6Z" fill="#FF7D4E"/>
<path d="M5 14C5.55225 14 6 13.5523 6 13C6 12.4477 5.55225 12 5 12C4.44775 12 4 12.4477 4 13C4 13.5523 4.44775 14 5 14Z" fill="#FF7D4E"/>
<path d="M8 9C8 9.55228 7.55225 10 7 10C6.44775 10 6 9.55228 6 9C6 8.44772 6.44775 8 7 8C7.55225 8 8 8.44772 8 9Z" fill="#FF7D4E"/>
<path d="M13 6C13.5522 6 14 5.55228 14 5C14 4.44772 13.5522 4 13 4C12.4478 4 12 4.44772 12 5C12 5.55228 12.4478 6 13 6Z" fill="#FF7D4E"/>
<path d="M14 13C14 13.5523 13.5522 14 13 14C12.4478 14 12 13.5523 12 13C12 12.4477 12.4478 12 13 12C13.5522 12 14 12.4477 14 13Z" fill="#FF7D4E"/>
<path d="M15 10C15.5522 10 16 9.55228 16 9C16 8.44772 15.5522 8 15 8C14.4478 8 14 8.44772 14 9C14 9.55228 14.4478 10 15 10Z" fill="#FF7D4E"/>
<path d="M22 5C22 5.55228 21.5522 6 21 6C20.4478 6 20 5.55228 20 5C20 4.44772 20.4478 4 21 4C21.5522 4 22 4.44772 22 5Z" fill="#FF7D4E"/>
<path d="M21 14C21.5522 14 22 13.5523 22 13C22 12.4477 21.5522 12 21 12C20.4478 12 20 12.4477 20 13C20 13.5523 20.4478 14 21 14Z" fill="#FF7D4E"/>
<path d="M24 9C24 9.55228 23.5522 10 23 10C22.4478 10 22 9.55228 22 9C22 8.44772 22.4478 8 23 8C23.5522 8 24 8.44772 24 9Z" fill="#FF7D4E"/>
<path d="M9 6C9.55225 6 10 5.55228 10 5C10 4.44772 9.55225 4 9 4C8.44775 4 8 4.44772 8 5C8 5.55228 8.44775 6 9 6Z" fill="#FF7D4E"/>
<path d="M10 13C10 13.5523 9.55225 14 9 14C8.44775 14 8 13.5523 8 13C8 12.4477 8.44775 12 9 12C9.55225 12 10 12.4477 10 13Z" fill="#FF7D4E"/>
<path d="M11 10C11.5522 10 12 9.55228 12 9C12 8.44772 11.5522 8 11 8C10.4478 8 10 8.44772 10 9C10 9.55228 10.4478 10 11 10Z" fill="#FF7D4E"/>
<path d="M18 5C18 5.55228 17.5522 6 17 6C16.4478 6 16 5.55228 16 5C16 4.44772 16.4478 4 17 4C17.5522 4 18 4.44772 18 5Z" fill="#FF7D4E"/>
<path d="M17 14C17.5522 14 18 13.5523 18 13C18 12.4477 17.5522 12 17 12C16.4478 12 16 12.4477 16 13C16 13.5523 16.4478 14 17 14Z" fill="#FF7D4E"/>
<path d="M20 9C20 9.55228 19.5522 10 19 10C18.4478 10 18 9.55228 18 9C18 8.44772 18.4478 8 19 8C19.5522 8 20 8.44772 20 9Z" fill="#FF7D4E"/>
<path d="M25 6C25.5522 6 26 5.55228 26 5C26 4.44772 25.5522 4 25 4C24.4478 4 24 4.44772 24 5C24 5.55228 24.4478 6 25 6Z" fill="#FF7D4E"/>
<path d="M26 13C26 13.5523 25.5522 14 25 14C24.4478 14 24 13.5523 24 13C24 12.4477 24.4478 12 25 12C25.5522 12 26 12.4477 26 13Z" fill="#FF7D4E"/>
<path d="M27 10C27.5522 10 28 9.55228 28 9C28 8.44772 27.5522 8 27 8C26.4478 8 26 8.44772 26 9C26 9.55228 26.4478 10 27 10Z" fill="#FF7D4E"/>
<path d="M30 5C30 5.55228 29.5522 6 29 6C28.4478 6 28 5.55228 28 5C28 4.44772 28.4478 4 29 4C29.5522 4 30 4.44772 30 5Z" fill="#FF7D4E"/>
<path d="M29 14C29.5522 14 30 13.5523 30 13C30 12.4477 29.5522 12 29 12C28.4478 12 28 12.4477 28 13C28 13.5523 28.4478 14 29 14Z" fill="#FF7D4E"/>
<path d="M31 10C31.5522 10 32 9.55228 32 9C32 8.44772 31.5522 8 31 8C30.4478 8 30 8.44772 30 9C30 9.55228 30.4478 10 31 10Z" fill="#FF7D4E"/>
<path d="M34 5C34 5.55228 33.5522 6 33 6C32.4478 6 32 5.55228 32 5C32 4.44772 32.4478 4 33 4C33.5522 4 34 4.44772 34 5Z" fill="#FF7D4E"/>
<path d="M33 14C33.5522 14 34 13.5523 34 13C34 12.4477 33.5522 12 33 12C32.4478 12 32 12.4477 32 13C32 13.5523 32.4478 14 33 14Z" fill="#FF7D4E"/>
<path d="M35 10C35.5522 10 36 9.55228 36 9C36 8.44772 35.5522 8 35 8C34.4478 8 34 8.44772 34 9C34 9.55228 34.4478 10 35 10Z" fill="#FF7D4E"/>
<path d="M5 22C5.55225 22 6 21.5523 6 21C6 20.4477 5.55225 20 5 20C4.44775 20 4 20.4477 4 21C4 21.5523 4.44775 22 5 22Z" fill="#FF7D4E"/>
<path d="M8 17C8 17.5523 7.55225 18 7 18C6.44775 18 6 17.5523 6 17C6 16.4477 6.44775 16 7 16C7.55225 16 8 16.4477 8 17Z" fill="#FF7D4E"/>
<path d="M14 21C14 21.5523 13.5522 22 13 22C12.4478 22 12 21.5523 12 21C12 20.4477 12.4478 20 13 20C13.5522 20 14 20.4477 14 21Z" fill="#FF7D4E"/>
<path d="M15 18C15.5522 18 16 17.5523 16 17C16 16.4477 15.5522 16 15 16C14.4478 16 14 16.4477 14 17C14 17.5523 14.4478 18 15 18Z" fill="#FF7D4E"/>
<path d="M21 22C21.5522 22 22 21.5523 22 21C22 20.4477 21.5522 20 21 20C20.4478 20 20 20.4477 20 21C20 21.5523 20.4478 22 21 22Z" fill="#FF7D4E"/>
<path d="M24 17C24 17.5523 23.5522 18 23 18C22.4478 18 22 17.5523 22 17C22 16.4477 22.4478 16 23 16C23.5522 16 24 16.4477 24 17Z" fill="#FF7D4E"/>
<path d="M10 21C10 21.5523 9.55225 22 9 22C8.44775 22 8 21.5523 8 21C8 20.4477 8.44775 20 9 20C9.55225 20 10 20.4477 10 21Z" fill="#FF7D4E"/>
<path d="M11 18C11.5522 18 12 17.5523 12 17C12 16.4477 11.5522 16 11 16C10.4478 16 10 16.4477 10 17C10 17.5523 10.4478 18 11 18Z" fill="#FF7D4E"/>
<path d="M17 22C17.5522 22 18 21.5523 18 21C18 20.4477 17.5522 20 17 20C16.4478 20 16 20.4477 16 21C16 21.5523 16.4478 22 17 22Z" fill="#FF7D4E"/>
<path d="M20 17C20 17.5523 19.5522 18 19 18C18.4478 18 18 17.5523 18 17C18 16.4477 18.4478 16 19 16C19.5522 16 20 16.4477 20 17Z" fill="#FF7D4E"/>
<path d="M26 21C26 21.5523 25.5522 22 25 22C24.4478 22 24 21.5523 24 21C24 20.4477 24.4478 20 25 20C25.5522 20 26 20.4477 26 21Z" fill="#FF7D4E"/>
<path d="M27 18C27.5522 18 28 17.5523 28 17C28 16.4477 27.5522 16 27 16C26.4478 16 26 16.4477 26 17C26 17.5523 26.4478 18 27 18Z" fill="#FF7D4E"/>
<path d="M29 22C29.5522 22 30 21.5523 30 21C30 20.4477 29.5522 20 29 20C28.4478 20 28 20.4477 28 21C28 21.5523 28.4478 22 29 22Z" fill="#FF7D4E"/>
<path d="M31 18C31.5522 18 32 17.5523 32 17C32 16.4477 31.5522 16 31 16C30.4478 16 30 16.4477 30 17C30 17.5523 30.4478 18 31 18Z" fill="#FF7D4E"/>
<path d="M33 22C33.5522 22 34 21.5523 34 21C34 20.4477 33.5522 20 33 20C32.4478 20 32 20.4477 32 21C32 21.5523 32.4478 22 33 22Z" fill="#FF7D4E"/>
<path d="M35 18C35.5522 18 36 17.5523 36 17C36 16.4477 35.5522 16 35 16C34.4478 16 34 16.4477 34 17C34 17.5523 34.4478 18 35 18Z" fill="#FF7D4E"/>
<path d="M5 30C5.55225 30 6 29.5523 6 29C6 28.4477 5.55225 28 5 28C4.44775 28 4 28.4477 4 29C4 29.5523 4.44775 30 5 30Z" fill="#FF7D4E"/>
<path d="M8 25C8 25.5523 7.55225 26 7 26C6.44775 26 6 25.5523 6 25C6 24.4477 6.44775 24 7 24C7.55225 24 8 24.4477 8 25Z" fill="#FF7D4E"/>
<path d="M14 29C14 29.5523 13.5522 30 13 30C12.4478 30 12 29.5523 12 29C12 28.4477 12.4478 28 13 28C13.5522 28 14 28.4477 14 29Z" fill="#FF7D4E"/>
<path d="M15 26C15.5522 26 16 25.5523 16 25C16 24.4477 15.5522 24 15 24C14.4478 24 14 24.4477 14 25C14 25.5523 14.4478 26 15 26Z" fill="#FF7D4E"/>
<path d="M21 30C21.5522 30 22 29.5523 22 29C22 28.4477 21.5522 28 21 28C20.4478 28 20 28.4477 20 29C20 29.5523 20.4478 30 21 30Z" fill="#FF7D4E"/>
<path d="M24 25C24 25.5523 23.5522 26 23 26C22.4478 26 22 25.5523 22 25C22 24.4477 22.4478 24 23 24C23.5522 24 24 24.4477 24 25Z" fill="#FF7D4E"/>
<path d="M10 29C10 29.5523 9.55225 30 9 30C8.44775 30 8 29.5523 8 29C8 28.4477 8.44775 28 9 28C9.55225 28 10 28.4477 10 29Z" fill="#FF7D4E"/>
<path d="M11 26C11.5522 26 12 25.5523 12 25C12 24.4477 11.5522 24 11 24C10.4478 24 10 24.4477 10 25C10 25.5523 10.4478 26 11 26Z" fill="#FF7D4E"/>
<path d="M17 30C17.5522 30 18 29.5523 18 29C18 28.4477 17.5522 28 17 28C16.4478 28 16 28.4477 16 29C16 29.5523 16.4478 30 17 30Z" fill="#FF7D4E"/>
<path d="M20 25C20 25.5523 19.5522 26 19 26C18.4478 26 18 25.5523 18 25C18 24.4477 18.4478 24 19 24C19.5522 24 20 24.4477 20 25Z" fill="#FF7D4E"/>
<path d="M26 29C26 29.5523 25.5522 30 25 30C24.4478 30 24 29.5523 24 29C24 28.4477 24.4478 28 25 28C25.5522 28 26 28.4477 26 29Z" fill="#FF7D4E"/>
<path d="M27 26C27.5522 26 28 25.5523 28 25C28 24.4477 27.5522 24 27 24C26.4478 24 26 24.4477 26 25C26 25.5523 26.4478 26 27 26Z" fill="#FF7D4E"/>
<path d="M29 30C29.5522 30 30 29.5523 30 29C30 28.4477 29.5522 28 29 28C28.4478 28 28 28.4477 28 29C28 29.5523 28.4478 30 29 30Z" fill="#FF7D4E"/>
<path d="M31 26C31.5522 26 32 25.5523 32 25C32 24.4477 31.5522 24 31 24C30.4478 24 30 24.4477 30 25C30 25.5523 30.4478 26 31 26Z" fill="#FF7D4E"/>
<path d="M33 30C33.5522 30 34 29.5523 34 29C34 28.4477 33.5522 28 33 28C32.4478 28 32 28.4477 32 29C32 29.5523 32.4478 30 33 30Z" fill="#FF7D4E"/>
<path d="M35 26C35.5522 26 36 25.5523 36 25C36 24.4477 35.5522 24 35 24C34.4478 24 34 24.4477 34 25C34 25.5523 34.4478 26 35 26Z" fill="#FF7D4E"/>
<path d="M8 33C8 33.5523 7.55225 34 7 34C6.44775 34 6 33.5523 6 33C6 32.4477 6.44775 32 7 32C7.55225 32 8 32.4477 8 33Z" fill="#FF7D4E"/>
<path d="M15 34C15.5522 34 16 33.5523 16 33C16 32.4477 15.5522 32 15 32C14.4478 32 14 32.4477 14 33C14 33.5523 14.4478 34 15 34Z" fill="#FF7D4E"/>
<path d="M24 33C24 33.5523 23.5522 34 23 34C22.4478 34 22 33.5523 22 33C22 32.4477 22.4478 32 23 32C23.5522 32 24 32.4477 24 33Z" fill="#FF7D4E"/>
<path d="M11 34C11.5522 34 12 33.5523 12 33C12 32.4477 11.5522 32 11 32C10.4478 32 10 32.4477 10 33C10 33.5523 10.4478 34 11 34Z" fill="#FF7D4E"/>
<path d="M20 33C20 33.5523 19.5522 34 19 34C18.4478 34 18 33.5523 18 33C18 32.4477 18.4478 32 19 32C19.5522 32 20 32.4477 20 33Z" fill="#FF7D4E"/>
<path d="M27 34C27.5522 34 28 33.5523 28 33C28 32.4477 27.5522 32 27 32C26.4478 32 26 32.4477 26 33C26 33.5523 26.4478 34 27 34Z" fill="#FF7D4E"/>
<path d="M31 34C31.5522 34 32 33.5523 32 33C32 32.4477 31.5522 32 31 32C30.4478 32 30 32.4477 30 33C30 33.5523 30.4478 34 31 34Z" fill="#FF7D4E"/>
<path d="M35 34C35.5522 34 36 33.5523 36 33C36 32.4477 35.5522 32 35 32C34.4478 32 34 32.4477 34 33C34 33.5523 34.4478 34 35 34Z" fill="#FF7D4E"/>
<path d="M5 38C5.55225 38 6 37.5523 6 37C6 36.4477 5.55225 36 5 36C4.44775 36 4 36.4477 4 37C4 37.5523 4.44775 38 5 38Z" fill="#FF7D4E"/>
<path d="M14 37C14 37.5523 13.5522 38 13 38C12.4478 38 12 37.5523 12 37C12 36.4477 12.4478 36 13 36C13.5522 36 14 36.4477 14 37Z" fill="#FF7D4E"/>
<path d="M21 38C21.5522 38 22 37.5523 22 37C22 36.4477 21.5522 36 21 36C20.4478 36 20 36.4477 20 37C20 37.5523 20.4478 38 21 38Z" fill="#FF7D4E"/>
<path d="M10 37C10 37.5523 9.55225 38 9 38C8.44775 38 8 37.5523 8 37C8 36.4477 8.44775 36 9 36C9.55225 36 10 36.4477 10 37Z" fill="#FF7D4E"/>
<path d="M17 38C17.5522 38 18 37.5523 18 37C18 36.4477 17.5522 36 17 36C16.4478 36 16 36.4477 16 37C16 37.5523 16.4478 38 17 38Z" fill="#FF7D4E"/>
<path d="M26 37C26 37.5523 25.5522 38 25 38C24.4478 38 24 37.5523 24 37C24 36.4477 24.4478 36 25 36C25.5522 36 26 36.4477 26 37Z" fill="#FF7D4E"/>
<path d="M29 38C29.5522 38 30 37.5523 30 37C30 36.4477 29.5522 36 29 36C28.4478 36 28 36.4477 28 37C28 37.5523 28.4478 38 29 38Z" fill="#FF7D4E"/>
<path d="M33 38C33.5522 38 34 37.5523 34 37C34 36.4477 33.5522 36 33 36C32.4478 36 32 36.4477 32 37C32 37.5523 32.4478 38 33 38Z" fill="#FF7D4E"/>
<path d="M8 41C8 41.5523 7.55225 42 7 42C6.44775 42 6 41.5523 6 41C6 40.4477 6.44775 40 7 40C7.55225 40 8 40.4477 8 41Z" fill="#FF7D4E"/>
<path d="M15 42C15.5522 42 16 41.5523 16 41C16 40.4477 15.5522 40 15 40C14.4478 40 14 40.4477 14 41C14 41.5523 14.4478 42 15 42Z" fill="#FF7D4E"/>
<path d="M24 41C24 41.5523 23.5522 42 23 42C22.4478 42 22 41.5523 22 41C22 40.4477 22.4478 40 23 40C23.5522 40 24 40.4477 24 41Z" fill="#FF7D4E"/>
<path d="M11 42C11.5522 42 12 41.5523 12 41C12 40.4477 11.5522 40 11 40C10.4478 40 10 40.4477 10 41C10 41.5523 10.4478 42 11 42Z" fill="#FF7D4E"/>
<path d="M20 41C20 41.5523 19.5522 42 19 42C18.4478 42 18 41.5523 18 41C18 40.4477 18.4478 40 19 40C19.5522 40 20 40.4477 20 41Z" fill="#FF7D4E"/>
<path d="M27 42C27.5522 42 28 41.5523 28 41C28 40.4477 27.5522 40 27 40C26.4478 40 26 40.4477 26 41C26 41.5523 26.4478 42 27 42Z" fill="#FF7D4E"/>
<path d="M31 42C31.5522 42 32 41.5523 32 41C32 40.4477 31.5522 40 31 40C30.4478 40 30 40.4477 30 41C30 41.5523 30.4478 42 31 42Z" fill="#FF7D4E"/>
<path d="M35 42C35.5522 42 36 41.5523 36 41C36 40.4477 35.5522 40 35 40C34.4478 40 34 40.4477 34 41C34 41.5523 34.4478 42 35 42Z" fill="#FF7D4E"/>
<path d="M5 6C5.55225 6 6 5.55228 6 5C6 4.44772 5.55225 4 5 4C4.44775 4 4 4.44772 4 5C4 5.55228 4.44775 6 5 6Z" stroke="#FF7D4E" stroke-width="2" mask="url(#path-2-inside-1_537_11937)"/>
<path d="M5 14C5.55225 14 6 13.5523 6 13C6 12.4477 5.55225 12 5 12C4.44775 12 4 12.4477 4 13C4 13.5523 4.44775 14 5 14Z" stroke="#FF7D4E" stroke-width="2" mask="url(#path-2-inside-1_537_11937)"/>
<path d="M8 9C8 9.55228 7.55225 10 7 10C6.44775 10 6 9.55228 6 9C6 8.44772 6.44775 8 7 8C7.55225 8 8 8.44772 8 9Z" stroke="#FF7D4E" stroke-width="2" mask="url(#path-2-inside-1_537_11937)"/>
<path d="M13 6C13.5522 6 14 5.55228 14 5C14 4.44772 13.5522 4 13 4C12.4478 4 12 4.44772 12 5C12 5.55228 12.4478 6 13 6Z" stroke="#FF7D4E" stroke-width="2" mask="url(#path-2-inside-1_537_11937)"/>
<path d="M14 13C14 13.5523 13.5522 14 13 14C12.4478 14 12 13.5523 12 13C12 12.4477 12.4478 12 13 12C13.5522 12 14 12.4477 14 13Z" stroke="#FF7D4E" stroke-width="2" mask="url(#path-2-inside-1_537_11937)"/>
<path d="M15 10C15.5522 10 16 9.55228 16 9C16 8.44772 15.5522 8 15 8C14.4478 8 14 8.44772 14 9C14 9.55228 14.4478 10 15 10Z" stroke="#FF7D4E" stroke-width="2" mask="url(#path-2-inside-1_537_11937)"/>
<path d="M22 5C22 5.55228 21.5522 6 21 6C20.4478 6 20 5.55228 20 5C20 4.44772 20.4478 4 21 4C21.5522 4 22 4.44772 22 5Z" stroke="#FF7D4E" stroke-width="2" mask="url(#path-2-inside-1_537_11937)"/>
<path d="M21 14C21.5522 14 22 13.5523 22 13C22 12.4477 21.5522 12 21 12C20.4478 12 20 12.4477 20 13C20 13.5523 20.4478 14 21 14Z" stroke="#FF7D4E" stroke-width="2" mask="url(#path-2-inside-1_537_11937)"/>
<path d="M24 9C24 9.55228 23.5522 10 23 10C22.4478 10 22 9.55228 22 9C22 8.44772 22.4478 8 23 8C23.5522 8 24 8.44772 24 9Z" stroke="#FF7D4E" stroke-width="2" mask="url(#path-2-inside-1_537_11937)"/>
<path d="M9 6C9.55225 6 10 5.55228 10 5C10 4.44772 9.55225 4 9 4C8.44775 4 8 4.44772 8 5C8 5.55228 8.44775 6 9 6Z" stroke="#FF7D4E" stroke-width="2" mask="url(#path-2-inside-1_537_11937)"/>
<path d="M10 13C10 13.5523 9.55225 14 9 14C8.44775 14 8 13.5523 8 13C8 12.4477 8.44775 12 9 12C9.55225 12 10 12.4477 10 13Z" stroke="#FF7D4E" stroke-width="2" mask="url(#path-2-inside-1_537_11937)"/>
<path d="M11 10C11.5522 10 12 9.55228 12 9C12 8.44772 11.5522 8 11 8C10.4478 8 10 8.44772 10 9C10 9.55228 10.4478 10 11 10Z" stroke="#FF7D4E" stroke-width="2" mask="url(#path-2-inside-1_537_11937)"/>
<path d="M18 5C18 5.55228 17.5522 6 17 6C16.4478 6 16 5.55228 16 5C16 4.44772 16.4478 4 17 4C17.5522 4 18 4.44772 18 5Z" stroke="#FF7D4E" stroke-width="2" mask="url(#path-2-inside-1_537_11937)"/>
<path d="M17 14C17.5522 14 18 13.5523 18 13C18 12.4477 17.5522 12 17 12C16.4478 12 16 12.4477 16 13C16 13.5523 16.4478 14 17 14Z" stroke="#FF7D4E" stroke-width="2" mask="url(#path-2-inside-1_537_11937)"/>
<path d="M20 9C20 9.55228 19.5522 10 19 10C18.4478 10 18 9.55228 18 9C18 8.44772 18.4478 8 19 8C19.5522 8 20 8.44772 20 9Z" stroke="#FF7D4E" stroke-width="2" mask="url(#path-2-inside-1_537_11937)"/>
<path d="M25 6C25.5522 6 26 5.55228 26 5C26 4.44772 25.5522 4 25 4C24.4478 4 24 4.44772 24 5C24 5.55228 24.4478 6 25 6Z" stroke="#FF7D4E" stroke-width="2" mask="url(#path-2-inside-1_537_11937)"/>
<path d="M26 13C26 13.5523 25.5522 14 25 14C24.4478 14 24 13.5523 24 13C24 12.4477 24.4478 12 25 12C25.5522 12 26 12.4477 26 13Z" stroke="#FF7D4E" stroke-width="2" mask="url(#path-2-inside-1_537_11937)"/>
<path d="M27 10C27.5522 10 28 9.55228 28 9C28 8.44772 27.5522 8 27 8C26.4478 8 26 8.44772 26 9C26 9.55228 26.4478 10 27 10Z" stroke="#FF7D4E" stroke-width="2" mask="url(#path-2-inside-1_537_11937)"/>
<path d="M30 5C30 5.55228 29.5522 6 29 6C28.4478 6 28 5.55228 28 5C28 4.44772 28.4478 4 29 4C29.5522 4 30 4.44772 30 5Z" stroke="#FF7D4E" stroke-width="2" mask="url(#path-2-inside-1_537_11937)"/>
<path d="M29 14C29.5522 14 30 13.5523 30 13C30 12.4477 29.5522 12 29 12C28.4478 12 28 12.4477 28 13C28 13.5523 28.4478 14 29 14Z" stroke="#FF7D4E" stroke-width="2" mask="url(#path-2-inside-1_537_11937)"/>
<path d="M31 10C31.5522 10 32 9.55228 32 9C32 8.44772 31.5522 8 31 8C30.4478 8 30 8.44772 30 9C30 9.55228 30.4478 10 31 10Z" stroke="#FF7D4E" stroke-width="2" mask="url(#path-2-inside-1_537_11937)"/>
<path d="M34 5C34 5.55228 33.5522 6 33 6C32.4478 6 32 5.55228 32 5C32 4.44772 32.4478 4 33 4C33.5522 4 34 4.44772 34 5Z" stroke="#FF7D4E" stroke-width="2" mask="url(#path-2-inside-1_537_11937)"/>
<path d="M33 14C33.5522 14 34 13.5523 34 13C34 12.4477 33.5522 12 33 12C32.4478 12 32 12.4477 32 13C32 13.5523 32.4478 14 33 14Z" stroke="#FF7D4E" stroke-width="2" mask="url(#path-2-inside-1_537_11937)"/>
<path d="M35 10C35.5522 10 36 9.55228 36 9C36 8.44772 35.5522 8 35 8C34.4478 8 34 8.44772 34 9C34 9.55228 34.4478 10 35 10Z" stroke="#FF7D4E" stroke-width="2" mask="url(#path-2-inside-1_537_11937)"/>
<path d="M5 22C5.55225 22 6 21.5523 6 21C6 20.4477 5.55225 20 5 20C4.44775 20 4 20.4477 4 21C4 21.5523 4.44775 22 5 22Z" stroke="#FF7D4E" stroke-width="2" mask="url(#path-2-inside-1_537_11937)"/>
<path d="M8 17C8 17.5523 7.55225 18 7 18C6.44775 18 6 17.5523 6 17C6 16.4477 6.44775 16 7 16C7.55225 16 8 16.4477 8 17Z" stroke="#FF7D4E" stroke-width="2" mask="url(#path-2-inside-1_537_11937)"/>
<path d="M14 21C14 21.5523 13.5522 22 13 22C12.4478 22 12 21.5523 12 21C12 20.4477 12.4478 20 13 20C13.5522 20 14 20.4477 14 21Z" stroke="#FF7D4E" stroke-width="2" mask="url(#path-2-inside-1_537_11937)"/>
<path d="M15 18C15.5522 18 16 17.5523 16 17C16 16.4477 15.5522 16 15 16C14.4478 16 14 16.4477 14 17C14 17.5523 14.4478 18 15 18Z" stroke="#FF7D4E" stroke-width="2" mask="url(#path-2-inside-1_537_11937)"/>
<path d="M21 22C21.5522 22 22 21.5523 22 21C22 20.4477 21.5522 20 21 20C20.4478 20 20 20.4477 20 21C20 21.5523 20.4478 22 21 22Z" stroke="#FF7D4E" stroke-width="2" mask="url(#path-2-inside-1_537_11937)"/>
<path d="M24 17C24 17.5523 23.5522 18 23 18C22.4478 18 22 17.5523 22 17C22 16.4477 22.4478 16 23 16C23.5522 16 24 16.4477 24 17Z" stroke="#FF7D4E" stroke-width="2" mask="url(#path-2-inside-1_537_11937)"/>
<path d="M10 21C10 21.5523 9.55225 22 9 22C8.44775 22 8 21.5523 8 21C8 20.4477 8.44775 20 9 20C9.55225 20 10 20.4477 10 21Z" stroke="#FF7D4E" stroke-width="2" mask="url(#path-2-inside-1_537_11937)"/>
<path d="M11 18C11.5522 18 12 17.5523 12 17C12 16.4477 11.5522 16 11 16C10.4478 16 10 16.4477 10 17C10 17.5523 10.4478 18 11 18Z" stroke="#FF7D4E" stroke-width="2" mask="url(#path-2-inside-1_537_11937)"/>
<path d="M17 22C17.5522 22 18 21.5523 18 21C18 20.4477 17.5522 20 17 20C16.4478 20 16 20.4477 16 21C16 21.5523 16.4478 22 17 22Z" stroke="#FF7D4E" stroke-width="2" mask="url(#path-2-inside-1_537_11937)"/>
<path d="M20 17C20 17.5523 19.5522 18 19 18C18.4478 18 18 17.5523 18 17C18 16.4477 18.4478 16 19 16C19.5522 16 20 16.4477 20 17Z" stroke="#FF7D4E" stroke-width="2" mask="url(#path-2-inside-1_537_11937)"/>
<path d="M26 21C26 21.5523 25.5522 22 25 22C24.4478 22 24 21.5523 24 21C24 20.4477 24.4478 20 25 20C25.5522 20 26 20.4477 26 21Z" stroke="#FF7D4E" stroke-width="2" mask="url(#path-2-inside-1_537_11937)"/>
<path d="M27 18C27.5522 18 28 17.5523 28 17C28 16.4477 27.5522 16 27 16C26.4478 16 26 16.4477 26 17C26 17.5523 26.4478 18 27 18Z" stroke="#FF7D4E" stroke-width="2" mask="url(#path-2-inside-1_537_11937)"/>
<path d="M29 22C29.5522 22 30 21.5523 30 21C30 20.4477 29.5522 20 29 20C28.4478 20 28 20.4477 28 21C28 21.5523 28.4478 22 29 22Z" stroke="#FF7D4E" stroke-width="2" mask="url(#path-2-inside-1_537_11937)"/>
<path d="M31 18C31.5522 18 32 17.5523 32 17C32 16.4477 31.5522 16 31 16C30.4478 16 30 16.4477 30 17C30 17.5523 30.4478 18 31 18Z" stroke="#FF7D4E" stroke-width="2" mask="url(#path-2-inside-1_537_11937)"/>
<path d="M33 22C33.5522 22 34 21.5523 34 21C34 20.4477 33.5522 20 33 20C32.4478 20 32 20.4477 32 21C32 21.5523 32.4478 22 33 22Z" stroke="#FF7D4E" stroke-width="2" mask="url(#path-2-inside-1_537_11937)"/>
<path d="M35 18C35.5522 18 36 17.5523 36 17C36 16.4477 35.5522 16 35 16C34.4478 16 34 16.4477 34 17C34 17.5523 34.4478 18 35 18Z" stroke="#FF7D4E" stroke-width="2" mask="url(#path-2-inside-1_537_11937)"/>
<path d="M5 30C5.55225 30 6 29.5523 6 29C6 28.4477 5.55225 28 5 28C4.44775 28 4 28.4477 4 29C4 29.5523 4.44775 30 5 30Z" stroke="#FF7D4E" stroke-width="2" mask="url(#path-2-inside-1_537_11937)"/>
<path d="M8 25C8 25.5523 7.55225 26 7 26C6.44775 26 6 25.5523 6 25C6 24.4477 6.44775 24 7 24C7.55225 24 8 24.4477 8 25Z" stroke="#FF7D4E" stroke-width="2" mask="url(#path-2-inside-1_537_11937)"/>
<path d="M14 29C14 29.5523 13.5522 30 13 30C12.4478 30 12 29.5523 12 29C12 28.4477 12.4478 28 13 28C13.5522 28 14 28.4477 14 29Z" stroke="#FF7D4E" stroke-width="2" mask="url(#path-2-inside-1_537_11937)"/>
<path d="M15 26C15.5522 26 16 25.5523 16 25C16 24.4477 15.5522 24 15 24C14.4478 24 14 24.4477 14 25C14 25.5523 14.4478 26 15 26Z" stroke="#FF7D4E" stroke-width="2" mask="url(#path-2-inside-1_537_11937)"/>
<path d="M21 30C21.5522 30 22 29.5523 22 29C22 28.4477 21.5522 28 21 28C20.4478 28 20 28.4477 20 29C20 29.5523 20.4478 30 21 30Z" stroke="#FF7D4E" stroke-width="2" mask="url(#path-2-inside-1_537_11937)"/>
<path d="M24 25C24 25.5523 23.5522 26 23 26C22.4478 26 22 25.5523 22 25C22 24.4477 22.4478 24 23 24C23.5522 24 24 24.4477 24 25Z" stroke="#FF7D4E" stroke-width="2" mask="url(#path-2-inside-1_537_11937)"/>
<path d="M10 29C10 29.5523 9.55225 30 9 30C8.44775 30 8 29.5523 8 29C8 28.4477 8.44775 28 9 28C9.55225 28 10 28.4477 10 29Z" stroke="#FF7D4E" stroke-width="2" mask="url(#path-2-inside-1_537_11937)"/>
<path d="M11 26C11.5522 26 12 25.5523 12 25C12 24.4477 11.5522 24 11 24C10.4478 24 10 24.4477 10 25C10 25.5523 10.4478 26 11 26Z" stroke="#FF7D4E" stroke-width="2" mask="url(#path-2-inside-1_537_11937)"/>
<path d="M17 30C17.5522 30 18 29.5523 18 29C18 28.4477 17.5522 28 17 28C16.4478 28 16 28.4477 16 29C16 29.5523 16.4478 30 17 30Z" stroke="#FF7D4E" stroke-width="2" mask="url(#path-2-inside-1_537_11937)"/>
<path d="M20 25C20 25.5523 19.5522 26 19 26C18.4478 26 18 25.5523 18 25C18 24.4477 18.4478 24 19 24C19.5522 24 20 24.4477 20 25Z" stroke="#FF7D4E" stroke-width="2" mask="url(#path-2-inside-1_537_11937)"/>
<path d="M26 29C26 29.5523 25.5522 30 25 30C24.4478 30 24 29.5523 24 29C24 28.4477 24.4478 28 25 28C25.5522 28 26 28.4477 26 29Z" stroke="#FF7D4E" stroke-width="2" mask="url(#path-2-inside-1_537_11937)"/>
<path d="M27 26C27.5522 26 28 25.5523 28 25C28 24.4477 27.5522 24 27 24C26.4478 24 26 24.4477 26 25C26 25.5523 26.4478 26 27 26Z" stroke="#FF7D4E" stroke-width="2" mask="url(#path-2-inside-1_537_11937)"/>
<path d="M29 30C29.5522 30 30 29.5523 30 29C30 28.4477 29.5522 28 29 28C28.4478 28 28 28.4477 28 29C28 29.5523 28.4478 30 29 30Z" stroke="#FF7D4E" stroke-width="2" mask="url(#path-2-inside-1_537_11937)"/>
<path d="M31 26C31.5522 26 32 25.5523 32 25C32 24.4477 31.5522 24 31 24C30.4478 24 30 24.4477 30 25C30 25.5523 30.4478 26 31 26Z" stroke="#FF7D4E" stroke-width="2" mask="url(#path-2-inside-1_537_11937)"/>
<path d="M33 30C33.5522 30 34 29.5523 34 29C34 28.4477 33.5522 28 33 28C32.4478 28 32 28.4477 32 29C32 29.5523 32.4478 30 33 30Z" stroke="#FF7D4E" stroke-width="2" mask="url(#path-2-inside-1_537_11937)"/>
<path d="M35 26C35.5522 26 36 25.5523 36 25C36 24.4477 35.5522 24 35 24C34.4478 24 34 24.4477 34 25C34 25.5523 34.4478 26 35 26Z" stroke="#FF7D4E" stroke-width="2" mask="url(#path-2-inside-1_537_11937)"/>
<path d="M8 33C8 33.5523 7.55225 34 7 34C6.44775 34 6 33.5523 6 33C6 32.4477 6.44775 32 7 32C7.55225 32 8 32.4477 8 33Z" stroke="#FF7D4E" stroke-width="2" mask="url(#path-2-inside-1_537_11937)"/>
<path d="M15 34C15.5522 34 16 33.5523 16 33C16 32.4477 15.5522 32 15 32C14.4478 32 14 32.4477 14 33C14 33.5523 14.4478 34 15 34Z" stroke="#FF7D4E" stroke-width="2" mask="url(#path-2-inside-1_537_11937)"/>
<path d="M24 33C24 33.5523 23.5522 34 23 34C22.4478 34 22 33.5523 22 33C22 32.4477 22.4478 32 23 32C23.5522 32 24 32.4477 24 33Z" stroke="#FF7D4E" stroke-width="2" mask="url(#path-2-inside-1_537_11937)"/>
<path d="M11 34C11.5522 34 12 33.5523 12 33C12 32.4477 11.5522 32 11 32C10.4478 32 10 32.4477 10 33C10 33.5523 10.4478 34 11 34Z" stroke="#FF7D4E" stroke-width="2" mask="url(#path-2-inside-1_537_11937)"/>
<path d="M20 33C20 33.5523 19.5522 34 19 34C18.4478 34 18 33.5523 18 33C18 32.4477 18.4478 32 19 32C19.5522 32 20 32.4477 20 33Z" stroke="#FF7D4E" stroke-width="2" mask="url(#path-2-inside-1_537_11937)"/>
<path d="M27 34C27.5522 34 28 33.5523 28 33C28 32.4477 27.5522 32 27 32C26.4478 32 26 32.4477 26 33C26 33.5523 26.4478 34 27 34Z" stroke="#FF7D4E" stroke-width="2" mask="url(#path-2-inside-1_537_11937)"/>
<path d="M31 34C31.5522 34 32 33.5523 32 33C32 32.4477 31.5522 32 31 32C30.4478 32 30 32.4477 30 33C30 33.5523 30.4478 34 31 34Z" stroke="#FF7D4E" stroke-width="2" mask="url(#path-2-inside-1_537_11937)"/>
<path d="M35 34C35.5522 34 36 33.5523 36 33C36 32.4477 35.5522 32 35 32C34.4478 32 34 32.4477 34 33C34 33.5523 34.4478 34 35 34Z" stroke="#FF7D4E" stroke-width="2" mask="url(#path-2-inside-1_537_11937)"/>
<path d="M5 38C5.55225 38 6 37.5523 6 37C6 36.4477 5.55225 36 5 36C4.44775 36 4 36.4477 4 37C4 37.5523 4.44775 38 5 38Z" stroke="#FF7D4E" stroke-width="2" mask="url(#path-2-inside-1_537_11937)"/>
<path d="M14 37C14 37.5523 13.5522 38 13 38C12.4478 38 12 37.5523 12 37C12 36.4477 12.4478 36 13 36C13.5522 36 14 36.4477 14 37Z" stroke="#FF7D4E" stroke-width="2" mask="url(#path-2-inside-1_537_11937)"/>
<path d="M21 38C21.5522 38 22 37.5523 22 37C22 36.4477 21.5522 36 21 36C20.4478 36 20 36.4477 20 37C20 37.5523 20.4478 38 21 38Z" stroke="#FF7D4E" stroke-width="2" mask="url(#path-2-inside-1_537_11937)"/>
<path d="M10 37C10 37.5523 9.55225 38 9 38C8.44775 38 8 37.5523 8 37C8 36.4477 8.44775 36 9 36C9.55225 36 10 36.4477 10 37Z" stroke="#FF7D4E" stroke-width="2" mask="url(#path-2-inside-1_537_11937)"/>
<path d="M17 38C17.5522 38 18 37.5523 18 37C18 36.4477 17.5522 36 17 36C16.4478 36 16 36.4477 16 37C16 37.5523 16.4478 38 17 38Z" stroke="#FF7D4E" stroke-width="2" mask="url(#path-2-inside-1_537_11937)"/>
<path d="M26 37C26 37.5523 25.5522 38 25 38C24.4478 38 24 37.5523 24 37C24 36.4477 24.4478 36 25 36C25.5522 36 26 36.4477 26 37Z" stroke="#FF7D4E" stroke-width="2" mask="url(#path-2-inside-1_537_11937)"/>
<path d="M29 38C29.5522 38 30 37.5523 30 37C30 36.4477 29.5522 36 29 36C28.4478 36 28 36.4477 28 37C28 37.5523 28.4478 38 29 38Z" stroke="#FF7D4E" stroke-width="2" mask="url(#path-2-inside-1_537_11937)"/>
<path d="M33 38C33.5522 38 34 37.5523 34 37C34 36.4477 33.5522 36 33 36C32.4478 36 32 36.4477 32 37C32 37.5523 32.4478 38 33 38Z" stroke="#FF7D4E" stroke-width="2" mask="url(#path-2-inside-1_537_11937)"/>
<path d="M8 41C8 41.5523 7.55225 42 7 42C6.44775 42 6 41.5523 6 41C6 40.4477 6.44775 40 7 40C7.55225 40 8 40.4477 8 41Z" stroke="#FF7D4E" stroke-width="2" mask="url(#path-2-inside-1_537_11937)"/>
<path d="M15 42C15.5522 42 16 41.5523 16 41C16 40.4477 15.5522 40 15 40C14.4478 40 14 40.4477 14 41C14 41.5523 14.4478 42 15 42Z" stroke="#FF7D4E" stroke-width="2" mask="url(#path-2-inside-1_537_11937)"/>
<path d="M24 41C24 41.5523 23.5522 42 23 42C22.4478 42 22 41.5523 22 41C22 40.4477 22.4478 40 23 40C23.5522 40 24 40.4477 24 41Z" stroke="#FF7D4E" stroke-width="2" mask="url(#path-2-inside-1_537_11937)"/>
<path d="M11 42C11.5522 42 12 41.5523 12 41C12 40.4477 11.5522 40 11 40C10.4478 40 10 40.4477 10 41C10 41.5523 10.4478 42 11 42Z" stroke="#FF7D4E" stroke-width="2" mask="url(#path-2-inside-1_537_11937)"/>
<path d="M20 41C20 41.5523 19.5522 42 19 42C18.4478 42 18 41.5523 18 41C18 40.4477 18.4478 40 19 40C19.5522 40 20 40.4477 20 41Z" stroke="#FF7D4E" stroke-width="2" mask="url(#path-2-inside-1_537_11937)"/>
<path d="M27 42C27.5522 42 28 41.5523 28 41C28 40.4477 27.5522 40 27 40C26.4478 40 26 40.4477 26 41C26 41.5523 26.4478 42 27 42Z" stroke="#FF7D4E" stroke-width="2" mask="url(#path-2-inside-1_537_11937)"/>
<path d="M31 42C31.5522 42 32 41.5523 32 41C32 40.4477 31.5522 40 31 40C30.4478 40 30 40.4477 30 41C30 41.5523 30.4478 42 31 42Z" stroke="#FF7D4E" stroke-width="2" mask="url(#path-2-inside-1_537_11937)"/>
<path d="M35 42C35.5522 42 36 41.5523 36 41C36 40.4477 35.5522 40 35 40C34.4478 40 34 40.4477 34 41C34 41.5523 34.4478 42 35 42Z" stroke="#FF7D4E" stroke-width="2" mask="url(#path-2-inside-1_537_11937)"/>
<mask id="path-3-inside-2_537_11937" fill="white">
<path fill-rule="evenodd" clip-rule="evenodd" d="M20.5357 14.0357L22 15.5L23.5 14L25 15.5L26.5 14L28 15.5L29.5 14L31 15.5L32.5 14L34 15.5L35.5 14L37 15.5L38.5 14L40 15.5L41.5 14L43 15.5L44.5 14L46 15.5L47.4643 14.0357C48.9007 14.2589 50 15.5011 50 17V43C50 44.6569 48.6569 46 47 46H21C19.3431 46 18 44.6569 18 43V17C18 15.5011 19.0993 14.2589 20.5357 14.0357Z"/>
</mask>
<path fill-rule="evenodd" clip-rule="evenodd" d="M20.5357 14.0357L22 15.5L23.5 14L25 15.5L26.5 14L28 15.5L29.5 14L31 15.5L32.5 14L34 15.5L35.5 14L37 15.5L38.5 14L40 15.5L41.5 14L43 15.5L44.5 14L46 15.5L47.4643 14.0357C48.9007 14.2589 50 15.5011 50 17V43C50 44.6569 48.6569 46 47 46H21C19.3431 46 18 44.6569 18 43V17C18 15.5011 19.0993 14.2589 20.5357 14.0357Z" fill="white"/>
<path d="M20.5357 14.0357L21.9499 12.6215L21.232 11.9035L20.2287 12.0594L20.5357 14.0357ZM22 15.5L20.5858 16.9142L22 18.3284L23.4142 16.9142L22 15.5ZM23.5 14L24.9142 12.5858L23.5 11.1716L22.0858 12.5858L23.5 14ZM25 15.5L23.5858 16.9142L25 18.3284L26.4142 16.9142L25 15.5ZM26.5 14L27.9142 12.5858L26.5 11.1716L25.0858 12.5858L26.5 14ZM28 15.5L26.5858 16.9142L28 18.3284L29.4142 16.9142L28 15.5ZM29.5 14L30.9142 12.5858L29.5 11.1716L28.0858 12.5858L29.5 14ZM31 15.5L29.5858 16.9142L31 18.3284L32.4142 16.9142L31 15.5ZM32.5 14L33.9142 12.5858L32.5 11.1716L31.0858 12.5858L32.5 14ZM34 15.5L32.5858 16.9142L34 18.3284L35.4142 16.9142L34 15.5ZM35.5 14L36.9142 12.5858L35.5 11.1716L34.0858 12.5858L35.5 14ZM37 15.5L35.5858 16.9142L37 18.3284L38.4142 16.9142L37 15.5ZM38.5 14L39.9142 12.5858L38.5 11.1716L37.0858 12.5858L38.5 14ZM40 15.5L38.5858 16.9142L40 18.3284L41.4142 16.9142L40 15.5ZM41.5 14L42.9142 12.5858L41.5 11.1716L40.0858 12.5858L41.5 14ZM43 15.5L41.5858 16.9142L43 18.3284L44.4142 16.9142L43 15.5ZM44.5 14L45.9142 12.5858L44.5 11.1716L43.0858 12.5858L44.5 14ZM46 15.5L44.5858 16.9142L46 18.3284L47.4142 16.9142L46 15.5ZM47.4643 14.0357L47.7713 12.0594L46.768 11.9035L46.0501 12.6215L47.4643 14.0357ZM19.1215 15.4499L20.5858 16.9142L23.4142 14.0858L21.9499 12.6215L19.1215 15.4499ZM23.4142 16.9142L24.9142 15.4142L22.0858 12.5858L20.5858 14.0858L23.4142 16.9142ZM22.0858 15.4142L23.5858 16.9142L26.4142 14.0858L24.9142 12.5858L22.0858 15.4142ZM26.4142 16.9142L27.9142 15.4142L25.0858 12.5858L23.5858 14.0858L26.4142 16.9142ZM25.0858 15.4142L26.5858 16.9142L29.4142 14.0858L27.9142 12.5858L25.0858 15.4142ZM29.4142 16.9142L30.9142 15.4142L28.0858 12.5858L26.5858 14.0858L29.4142 16.9142ZM28.0858 15.4142L29.5858 16.9142L32.4142 14.0858L30.9142 12.5858L28.0858 15.4142ZM32.4142 16.9142L33.9142 15.4142L31.0858 12.5858L29.5858 14.0858L32.4142 16.9142ZM31.0858 15.4142L32.5858 16.9142L35.4142 14.0858L33.9142 12.5858L31.0858 15.4142ZM35.4142 16.9142L36.9142 15.4142L34.0858 12.5858L32.5858 14.0858L35.4142 16.9142ZM38.4142 14.0858L36.9142 12.5858L34.0858 15.4142L35.5858 16.9142L38.4142 14.0858ZM37.0858 12.5858L35.5858 14.0858L38.4142 16.9142L39.9142 15.4142L37.0858 12.5858ZM41.4142 14.0858L39.9142 12.5858L37.0858 15.4142L38.5858 16.9142L41.4142 14.0858ZM40.0858 12.5858L38.5858 14.0858L41.4142 16.9142L42.9142 15.4142L40.0858 12.5858ZM44.4142 14.0858L42.9142 12.5858L40.0858 15.4142L41.5858 16.9142L44.4142 14.0858ZM43.0858 12.5858L41.5858 14.0858L44.4142 16.9142L45.9142 15.4142L43.0858 12.5858ZM47.4142 14.0858L45.9142 12.5858L43.0858 15.4142L44.5858 16.9142L47.4142 14.0858ZM46.0501 12.6215L44.5858 14.0858L47.4142 16.9142L48.8785 15.4499L46.0501 12.6215ZM47.1572 16.012C47.6343 16.0861 48 16.5022 48 17H52C52 14.4999 50.167 12.4316 47.7713 12.0594L47.1572 16.012ZM48 17V43H52V17H48ZM48 43C48 43.5523 47.5523 44 47 44V48C49.7614 48 52 45.7614 52 43H48ZM47 44H21V48H47V44ZM21 44C20.4477 44 20 43.5523 20 43H16C16 45.7614 18.2386 48 21 48V44ZM20 43V17H16V43H20ZM20 17C20 16.5022 20.3657 16.0861 20.8428 16.012L20.2287 12.0594C17.833 12.4316 16 14.4999 16 17H20Z" fill="black" mask="url(#path-3-inside-2_537_11937)"/>
</svg>
