<svg width="50" height="44" viewBox="0 0 50 44" fill="none" xmlns="http://www.w3.org/2000/svg">
<path d="M1 4C1 2.34315 2.34315 1 4 1H34C35.6569 1 37 2.34315 37 4V6C37 6.55228 36.5523 7 36 7H2C1.44771 7 1 6.55229 1 6V4Z" fill="white" stroke="black" stroke-width="2"/>
<path d="M1 10C1 8.34315 2.34315 7 4 7H34C35.6569 7 37 8.34315 37 10V38C37 40.7614 34.7614 43 32 43H6C3.23858 43 1 40.7614 1 38V10Z" fill="white" stroke="black" stroke-width="2"/>
<rect x="43" y="9" width="6" height="33" rx="2" fill="white" stroke="black" stroke-width="2"/>
<rect x="42" y="12" width="8" height="2" fill="black"/>
<rect x="42" y="37" width="8" height="2" fill="black"/>
<path d="M5.5 21C5.5 21.2761 5.27611 21.5 5 21.5C4.72389 21.5 4.5 21.2761 4.5 21C4.5 20.7239 4.72389 20.5 5 20.5C5.27611 20.5 5.5 20.7239 5.5 21ZM5.5 29C5.5 29.2761 5.27611 29.5 5 29.5C4.72389 29.5 4.5 29.2761 4.5 29C4.5 28.7239 4.72389 28.5 5 28.5C5.27611 28.5 5.5 28.7239 5.5 29ZM7.5 25C7.5 25.2761 7.27611 25.5 7 25.5C6.72389 25.5 6.5 25.2761 6.5 25C6.5 24.7239 6.72389 24.5 7 24.5C7.27611 24.5 7.5 24.7239 7.5 25ZM13.5 21C13.5 21.2761 13.2761 21.5 13 21.5C12.7239 21.5 12.5 21.2761 12.5 21C12.5 20.7239 12.7239 20.5 13 20.5C13.2761 20.5 13.5 20.7239 13.5 21ZM13.5 29C13.5 29.2761 13.2761 29.5 13 29.5C12.7239 29.5 12.5 29.2761 12.5 29C12.5 28.7239 12.7239 28.5 13 28.5C13.2761 28.5 13.5 28.7239 13.5 29ZM15.5 25C15.5 25.2761 15.2761 25.5 15 25.5C14.7239 25.5 14.5 25.2761 14.5 25C14.5 24.7239 14.7239 24.5 15 24.5C15.2761 24.5 15.5 24.7239 15.5 25ZM21.5 21C21.5 21.2761 21.2761 21.5 21 21.5C20.7239 21.5 20.5 21.2761 20.5 21C20.5 20.7239 20.7239 20.5 21 20.5C21.2761 20.5 21.5 20.7239 21.5 21ZM21.5 29C21.5 29.2761 21.2761 29.5 21 29.5C20.7239 29.5 20.5 29.2761 20.5 29C20.5 28.7239 20.7239 28.5 21 28.5C21.2761 28.5 21.5 28.7239 21.5 29ZM23.5 25C23.5 25.2761 23.2761 25.5 23 25.5C22.7239 25.5 22.5 25.2761 22.5 25C22.5 24.7239 22.7239 24.5 23 24.5C23.2761 24.5 23.5 24.7239 23.5 25ZM9.5 21C9.5 21.2761 9.27611 21.5 9 21.5C8.72389 21.5 8.5 21.2761 8.5 21C8.5 20.7239 8.72389 20.5 9 20.5C9.27611 20.5 9.5 20.7239 9.5 21ZM9.5 29C9.5 29.2761 9.27611 29.5 9 29.5C8.72389 29.5 8.5 29.2761 8.5 29C8.5 28.7239 8.72389 28.5 9 28.5C9.27611 28.5 9.5 28.7239 9.5 29ZM11.5 25C11.5 25.2761 11.2761 25.5 11 25.5C10.7239 25.5 10.5 25.2761 10.5 25C10.5 24.7239 10.7239 24.5 11 24.5C11.2761 24.5 11.5 24.7239 11.5 25ZM17.5 21C17.5 21.2761 17.2761 21.5 17 21.5C16.7239 21.5 16.5 21.2761 16.5 21C16.5 20.7239 16.7239 20.5 17 20.5C17.2761 20.5 17.5 20.7239 17.5 21ZM17.5 29C17.5 29.2761 17.2761 29.5 17 29.5C16.7239 29.5 16.5 29.2761 16.5 29C16.5 28.7239 16.7239 28.5 17 28.5C17.2761 28.5 17.5 28.7239 17.5 29ZM19.5 25C19.5 25.2761 19.2761 25.5 19 25.5C18.7239 25.5 18.5 25.2761 18.5 25C18.5 24.7239 18.7239 24.5 19 24.5C19.2761 24.5 19.5 24.7239 19.5 25ZM25.5 21C25.5 21.2761 25.2761 21.5 25 21.5C24.7239 21.5 24.5 21.2761 24.5 21C24.5 20.7239 24.7239 20.5 25 20.5C25.2761 20.5 25.5 20.7239 25.5 21ZM25.5 29C25.5 29.2761 25.2761 29.5 25 29.5C24.7239 29.5 24.5 29.2761 24.5 29C24.5 28.7239 24.7239 28.5 25 28.5C25.2761 28.5 25.5 28.7239 25.5 29ZM27.5 25C27.5 25.2761 27.2761 25.5 27 25.5C26.7239 25.5 26.5 25.2761 26.5 25C26.5 24.7239 26.7239 24.5 27 24.5C27.2761 24.5 27.5 24.7239 27.5 25ZM29.5 21C29.5 21.2761 29.2761 21.5 29 21.5C28.7239 21.5 28.5 21.2761 28.5 21C28.5 20.7239 28.7239 20.5 29 20.5C29.2761 20.5 29.5 20.7239 29.5 21ZM29.5 29C29.5 29.2761 29.2761 29.5 29 29.5C28.7239 29.5 28.5 29.2761 28.5 29C28.5 28.7239 28.7239 28.5 29 28.5C29.2761 28.5 29.5 28.7239 29.5 29ZM31.5 25C31.5 25.2761 31.2761 25.5 31 25.5C30.7239 25.5 30.5 25.2761 30.5 25C30.5 24.7239 30.7239 24.5 31 24.5C31.2761 24.5 31.5 24.7239 31.5 25ZM33.5 21C33.5 21.2761 33.2761 21.5 33 21.5C32.7239 21.5 32.5 21.2761 32.5 21C32.5 20.7239 32.7239 20.5 33 20.5C33.2761 20.5 33.5 20.7239 33.5 21ZM33.5 29C33.5 29.2761 33.2761 29.5 33 29.5C32.7239 29.5 32.5 29.2761 32.5 29C32.5 28.7239 32.7239 28.5 33 28.5C33.2761 28.5 33.5 28.7239 33.5 29Z" fill="#FF7D4E" stroke="#FF7D4E"/>
</svg>
