<svg width="22" height="22" viewBox="0 0 22 22" fill="none" xmlns="http://www.w3.org/2000/svg">
<path fill-rule="evenodd" clip-rule="evenodd" d="M21.2628 11.2432C21.2628 10.4848 21.1947 9.75566 21.0683 9.05566H10.9961V13.1925H16.7516C16.5037 14.5293 15.7503 15.6619 14.6176 16.4202V19.1036H18.0739C20.0961 17.2418 21.2628 14.5001 21.2628 11.2432Z" fill="#4385F6"/>
<path fill-rule="evenodd" clip-rule="evenodd" d="M10.9984 21.6947C13.8859 21.6947 16.3067 20.7371 18.0761 19.1038L14.6199 16.4204C13.6622 17.0621 12.4372 17.4413 10.9984 17.4413C8.21293 17.4413 5.8553 15.56 5.01432 13.0322H1.44141V15.8031C3.20113 19.2982 6.8178 21.6947 10.9984 21.6947Z" fill="#34A855"/>
<path fill-rule="evenodd" clip-rule="evenodd" d="M5.0151 13.0325C4.80122 12.3908 4.67969 11.7054 4.67969 11.0005C4.67969 10.2957 4.80122 9.61025 5.0151 8.96859V6.19775H1.44219C0.717882 7.6415 0.304688 9.27484 0.304688 11.0005C0.304688 12.7262 0.717882 14.3596 1.44219 15.8033L5.0151 13.0325Z" fill="#FBBD06"/>
<path fill-rule="evenodd" clip-rule="evenodd" d="M10.9984 4.55914C12.5685 4.55914 13.9782 5.09872 15.0865 6.15844L18.1539 3.09108C16.3018 1.36539 13.881 0.305664 10.9984 0.305664C6.8178 0.305664 3.20113 2.70219 1.44141 6.19733L5.01432 8.96816C5.8553 6.44039 8.21293 4.55914 10.9984 4.55914Z" fill="#EA4235"/>
</svg>
