<svg width="103" height="84" viewBox="0 0 103 84" fill="none" xmlns="http://www.w3.org/2000/svg">
<path d="M95.6153 19.9986V0H50.2262V19.9986L43.0838 32.3519C40.75 32.4927 38.5167 32.8548 36.4646 33.1767C35.8811 33.2773 35.2977 33.3578 34.7343 33.4383V27.986C34.7343 23.0567 38.7582 19.0329 43.6874 19.0329V12.9971C38.396 12.9971 33.7485 15.7534 31.0927 19.8779C30.63 19.2341 30.1471 18.6506 29.6039 18.1074C26.8677 15.3913 22.8237 13.6811 17.8743 13.1781C14.3132 12.816 11.4764 13.1781 11.3557 13.1983L9.08219 13.5001L8.7804 15.7735C8.76028 15.8943 8.39813 18.7311 8.76028 22.2922C9.2029 26.6178 10.5911 30.2796 12.764 32.9554C8.53896 34.062 5.29976 36.5769 3.08663 40.4197C-0.434249 46.5762 -0.99759 56.5353 1.67828 65.8103C3.20735 71.1016 6.34596 75.6486 10.7521 78.9482C15.1582 82.2477 20.3892 83.9981 25.9019 83.9981H102.999V32.7542L95.6153 19.9986ZM69.3798 17.7855V6.03579H76.4618V17.7855H69.3798ZM82.4976 6.03579H89.5796V17.7855H82.4976V6.03579ZM56.262 6.03579H63.344V17.7855H56.262V6.03579ZM17.3915 19.1938C19.8259 19.4554 23.1657 20.24 25.3386 22.3928C28.2358 25.29 28.6985 30.1588 28.6985 33.0963H28.6784C25.741 33.0963 20.852 32.6134 17.995 29.7565C15.0979 26.8593 14.6351 21.9904 14.6351 19.053C15.4399 19.053 16.3654 19.0731 17.3915 19.1938ZM25.9019 77.9825C17.3915 77.9825 9.80648 72.3088 7.47264 64.1605C5.25952 56.495 5.60154 48.1656 8.31765 43.4376C11.7782 37.3817 18.1158 37.8847 26.0428 39.1522C28.1151 39.4741 30.0666 39.796 31.7365 39.796C33.4064 39.796 35.358 39.4741 37.4303 39.1522C39.1404 38.8705 40.9914 38.5888 42.8625 38.4279V77.9825H25.9019ZM96.9633 77.9825H48.8782V34.3839L54.9743 23.8213H90.8471L96.9432 34.3839L96.9633 77.9825Z" fill="#7E70D8"/>
</svg>
